#!OML:ASF X:\für Bonn\!DataBase\2005_08_12_Daniel\c3d\Daniel.ASF
:FULLY-SPECIFIED
:DEGREES
31
root -18.7042 17.5946 0.129604 -54.1881 84.8613 -427.546
lowerback 28.9753 -2.18481 4.14631
upperback 11.8937 -0.629943 -1.16095
thorax -2.65925 0.307222 -3.48934
lowerneck 1.11041 1.32805 -7.64914
upperneck -2.84616 1.65254 0.948
head -1.15762 0.903623 1.57715
rclavicle 1.90833e-014 -4.77083e-015
rhumerus -71.0384 -5.52239 -78.5197
rradius 21.1233
rwrist 11.0679
rhand -14.8166 18.8544
rfingers 7.12502
rthumb 11.3417 -10.8189
lclavicle 1.90833e-014 -4.77083e-015
lhumerus -81.8107 10.153 69.0256
lradius 35.3707
lwrist -13.7391
lhand -5.80376 -14.1475
lfingers 7.12502
lthumb 20.021 14.841
rfemur -41.0745 0.070157 26.5338
rtibia 53.2866
rfoot -9.87852 -2.73282
rtoes -10.4002
lfemur -44.1885 0.0286784 -14.2987
ltibia 62.9326
lfoot -15.8255 -1.44782
ltoes -13.261
32
root -18.6057 17.5559 0.129083 -54.3254 84.8274 -428.186
lowerback 29.0929 -2.1335 4.24401
upperback 11.6365 -0.558833 -1.12073
thorax -2.99627 0.319584 -3.52547
lowerneck 0.42379 1.16063 -7.22453
upperneck -3.35602 1.48667 0.608734
head -1.18271 0.836751 1.397
rclavicle 1.31198e-014 7.95139e-015
rhumerus -70.7104 -6.19185 -78.3066
rradius 21.7394
rwrist 8.90609
rhand -15.7569 18.6178
rfingers 7.12502
rthumb 10.4347 -11.1032
lclavicle 1.31198e-014 7.95139e-015
lhumerus -82.3196 10.9149 69.1316
lradius 36.6616
lwrist -10.8392
lhand -6.40362 -14.3328
lfingers 7.12502
lthumb 19.4443 14.7149
rfemur -41.6592 0.503735 26.4931
rtibia 53.2449
rfoot -10.9921 -2.975
rtoes -10.7175
lfemur -44.8394 -0.229894 -14.2948
ltibia 63.822
lfoot -16.3354 -0.887762
ltoes -13.3547
33
root -18.504 17.5074 0.12754 -54.4768 84.7665 -428.867
lowerback 29.1344 -2.08006 4.35785
upperback 11.3596 -0.486315 -1.05693
thorax -3.32035 0.330045 -3.54519
lowerneck -0.215155 1.00501 -6.83649
upperneck -3.9255 1.32703 0.270769
head -1.23735 0.774797 1.22437
rclavicle -1.39149e-014 -2.62396e-014
rhumerus -70.1938 -6.72887 -78.371
rradius 22.5144
rwrist 6.29005
rhand -16.8757 18.1161
rfingers 7.12502
rthumb 9.3553 -11.6563
lclavicle -1.39149e-014 -2.62396e-014
lhumerus -82.5896 11.8099 69.263
lradius 38.0821
lwrist -7.50928
lhand -6.78977 -14.0957
lfingers 7.12502
lthumb 19.073 14.9892
rfemur -42.2832 0.894443 26.4912
rtibia 53.402
rfoot -12.0984 -3.2914
rtoes -10.8949
lfemur -45.5114 -0.49127 -14.2645
ltibia 64.7557
lfoot -16.9716 -0.301842
ltoes -13.6616
34
root -18.4008 17.4474 0.127413 -54.5651 84.7113 -429.476
lowerback 29.1241 -2.01726 4.47542
upperback 11.0814 -0.405013 -1.01353
thorax -3.62106 0.345023 -3.59231
lowerneck -0.77236 0.853591 -6.39928
upperneck -4.5914 1.1616 -0.061551
head -1.3376 0.711515 1.04586
rclavicle 1.19271e-014 2.66371e-014
rhumerus -69.6728 -7.301 -78.5598
rradius 23.5692
rwrist 3.46185
rhand -18.1561 17.5253
rfingers 7.12502
rthumb 8.11964 -12.2988
lclavicle 1.19271e-014 2.66371e-014
lhumerus -82.565 12.8058 69.3017
lradius 39.6048
lwrist -3.96111
lhand -6.98399 -13.4602
lfingers 7.12502
lthumb 18.8862 15.6429
rfemur -42.8673 1.30273 26.4711
rtibia 53.7411
rfoot -13.2885 -3.6245
rtoes -10.8357
lfemur -46.1984 -0.822686 -14.224
ltibia 65.7454
lfoot -17.6539 0.32247
ltoes -13.9145
